<!-- Generator: Adobe Illustrator 18.1.0, SVG Export Plug-In  -->
<svg version="1.1"
	 xmlns="http://www.w3.org/2000/svg" xmlns:xlink="http://www.w3.org/1999/xlink" xmlns:a="http://ns.adobe.com/AdobeSVGViewerExtensions/3.0/"
	 x="0px" y="0px" width="299.9px" height="299.9px" viewBox="0 0 299.9 299.9" enable-background="new 0 0 299.9 299.9"
	 xml:space="preserve">
<defs>
</defs>
<g>
	<g>
		<path fill="#FFFFFF" d="M133.9,83.1c-7.9,5.4-13.3,14.3-14.4,23.7c-0.5,4,5.8,4,6.3,0c0.6-5.1,3.1-9.8,6.4-13.6
			c1.1-1.3,2.3-2.5,3.6-3.6c0.2-0.2,1.6-1.3,0.8-0.7c0.1-0.1,0.3-0.2,0.5-0.3C140.4,86.3,137.2,80.8,133.9,83.1L133.9,83.1z"/>
	</g>
	<g>
		<path fill="#FFFFFF" d="M108.4,89c-3.4,3.9-6.3,8.3-8.5,12.9c-1.6,3.5-2.9,7.2-3.1,11.2c-0.2,2.7,0,6.1,2.5,7.8
			c3.1,2.2,7.8,2.1,11.5,2.4c5.5,0.6,11,1.2,16.2,3c6.1,2.1,10.7,6.1,12.3,12.6c0.9,3.9,7,2.3,6.1-1.7
			c-2.9-12.4-14.6-17.5-26.2-19.2c-4.6-0.7-9.8-0.9-13.9-1.7c-0.7-0.1-1.4-0.3-2.1-0.5c-0.4-0.1,0.5-0.1-0.2-0.1
			c-0.4,0-0.1-0.1,0.1,0.2c0,0,0.4,0.4,0.3,0.6c0.1-0.1-0.2-0.8-0.2-0.9c0-0.8-0.1-1.6,0-2.4c0.1-1.7,0.6-3.4,1.1-5.1
			c1.8-5.3,5.2-10.5,8.7-14.5C115.5,90.4,111.1,85.9,108.4,89L108.4,89z"/>
	</g>
	<g>
		<path fill="#FFFFFF" d="M114,120.9c1.2,15.2-4.9,33-21,37.3c-3.9,1-2.3,7.1,1.7,6.1c12-3.2,20-12.5,23.4-24.2
			c1.8-6.1,2.7-12.8,2.2-19.2C120,116.9,113.7,116.8,114,120.9L114,120.9z"/>
	</g>
	<g>
		<path fill="#FFFFFF" d="M113.2,147.8c6.8,1.5,21.6,6.4,18.9,15.7c-3.6,12.6-19.6,16.5-23.6,28.9c-2.9,9,3.9,17.7,9.6,23.9
			c2.8,3,7.2-1.5,4.5-4.5c-4.4-4.7-10.7-12.1-7.5-18.8c2.5-5.3,8.3-9,12.5-12.9c5.1-4.6,10.8-10.9,11.1-18.2
			c0.3-6.8-4.8-11.8-10.2-15c-4.2-2.4-8.9-4.2-13.6-5.3C110.9,140.8,109.2,146.9,113.2,147.8L113.2,147.8z"/>
	</g>
	<g>
		<path fill="#FFFFFF" d="M170.1,85.8C170.1,85.8,170.2,85,170.1,85.8c-0.2,0.7-0.3,1.4-0.5,2.1c-0.7,2.3-1.5,4.2-2.7,6.3
			c-4.3,7.2-11.4,11.8-19.3,14.4c-3.9,1.2-2.2,7.3,1.7,6.1c12.9-4.1,25.7-14.5,27.2-28.9C176.8,81.8,170.5,81.8,170.1,85.8
			L170.1,85.8z"/>
	</g>
	<g>
		<path fill="#FFFFFF" d="M171,98.1c0.3,0,0.6,0.1,0.9,0.1c-0.9-0.1,0,0,0.4,0.1c0.5,0.1,1,0.2,1.5,0.3c2.8,0.6,5.6,1.3,8.3,2.4
			c7.9,2.9,14.9,8.1,19.4,15.3c2.2,3.4,7.6,0.3,5.4-3.2c-7.6-12.1-21.8-20-36-21.2C166.9,91.5,166.9,97.8,171,98.1L171,98.1z"/>
	</g>
	<g>
		<path fill="#FFFFFF" d="M170.2,111.7c0.2,3.1-0.4,5.7-1.7,8.9c-3,7.6-9.4,13.1-16.5,16.8c-3.6,1.9-0.4,7.3,3.2,5.4
			c11-5.7,22.3-17.5,21.3-31.1C176.2,107.7,169.9,107.7,170.2,111.7L170.2,111.7z"/>
	</g>
	<g>
		<path fill="#FFFFFF" d="M171.4,125.8c-1.3-0.2-0.2,0,0.4,0.1c1.1,0.2,2.2,0.4,3.3,0.7c3.4,0.9,6.7,2.1,9.6,3.4
			c8.6,4.2,15.5,11.1,17.6,20.8c1.7,8.1-0.1,16.6-2.7,24.3c-1.3,3.8,4.8,5.5,6.1,1.7c4.7-13.8,5.6-29.4-3.9-41.4
			c-5.9-7.4-14.7-12.1-23.7-14.6c-2.2-0.6-4.4-1.1-6.7-1.4C167.4,119,167.4,125.3,171.4,125.8L171.4,125.8z"/>
	</g>
	<g>
		<path fill="#FFFFFF" d="M153.6,163.7c12.7,0,25.5,0,38.2,0c4.1,0,4.1-6.3,0-6.3c-12.7,0-25.5,0-38.2,0
			C149.6,157.4,149.6,163.7,153.6,163.7L153.6,163.7z"/>
	</g>
	<g>
		<path fill="#FFFFFF" d="M175,140c1.7,6.3,1,13.6-2.8,19c-2.3,3.4,3.2,6.5,5.4,3.2c4.6-6.7,5.4-16,3.4-23.8
			C180.1,134.4,174,136,175,140L175,140z"/>
	</g>
	<g>
		<path fill="#FFFFFF" d="M162.3,162c0,0.1,0,0.3,0.1,0.4c0.2,1,0-0.5,0.1,0.6c0.2,1.4,0.3,2.9,0.4,4.3c0.3,4.5,0.2,9.1-0.3,13.7
			c-1.2,11.6-5.8,23.5-15.9,30.3c-3.4,2.2-0.2,7.7,3.2,5.4c16.4-11,20.6-32,19.2-50.6c-0.1-1.9-0.3-3.9-0.7-5.8
			C167.7,156.4,161.7,158.1,162.3,162L162.3,162z"/>
	</g>
	<g>
		<path fill="#FFFFFF" d="M180.8,161.2c-0.8,7.1-0.1,14.5,1.1,21.5c2.3,13.3,8.3,25.8,19.2,34c3.2,2.4,6.4-3,3.2-5.4
			c-14.6-11-19-32.7-17.2-50.1C187.5,157.2,181.2,157.2,180.8,161.2L180.8,161.2z"/>
	</g>
</g>
<g>
	<path fill="#FFFFFF" d="M150,299.9c-40.1,0-77.7-15.6-106-43.9C15.6,227.7,0,190,0,150c0-40.1,15.6-77.7,43.9-106
		C72.2,15.6,109.9,0,150,0c40.1,0,77.7,15.6,106,43.9c28.3,28.3,43.9,66,43.9,106c0,40.1-15.6,77.7-43.9,106
		C227.7,284.3,190,299.9,150,299.9z M150,2.1C68.4,2.1,2.1,68.4,2.1,150S68.4,297.8,150,297.8S297.8,231.5,297.8,150
		S231.5,2.1,150,2.1z"/>
</g>
</svg>
